<svg width="25" height="25" viewBox="0 0 33 35" fill="none" xmlns="http://www.w3.org/2000/svg">
<path d="M33 17.5C33 7.83398 25.6137 0 16.5 0C7.38633 0 0 7.83398 0 17.5C0 27.166 7.38633 35 16.5 35C16.5967 35 16.6934 35 16.79 34.9932V21.376H13.2451V16.9941H16.79V13.7676C16.79 10.0283 18.9428 7.99121 22.0881 7.99121C23.5963 7.99121 24.8918 8.10742 25.2656 8.16211V12.0723H23.1C21.392 12.0723 21.0568 12.9336 21.0568 14.1982V16.9873H25.1496L24.6146 21.3691H21.0568V34.3232C27.9533 32.2246 33 25.4912 33 17.5Z" fill="white"/>
</svg>
