<svg width="25" height="25" viewBox="0 0 33 35" fill="none" xmlns="http://www.w3.org/2000/svg">
<path d="M19.6582 17.5C19.6582 19.35 18.2443 20.8496 16.5 20.8496C14.7557 20.8496 13.3418 19.35 13.3418 17.5C13.3418 15.65 14.7557 14.1504 16.5 14.1504C18.2443 14.1504 19.6582 15.65 19.6582 17.5Z" fill="white"/>
<path d="M23.886 11.5734C23.7341 11.1371 23.4919 10.7421 23.1772 10.418C22.8716 10.0842 22.4995 9.82729 22.0878 9.66627C21.754 9.52875 21.2524 9.36506 20.3287 9.32047C19.3294 9.27213 19.0298 9.26172 16.5 9.26172C13.97 9.26172 13.6704 9.27187 12.6714 9.3202C11.7476 9.36506 11.2458 9.52875 10.9122 9.66627C10.5006 9.82729 10.1282 10.0842 9.82284 10.418C9.50813 10.7421 9.26592 11.1368 9.11385 11.5734C8.98419 11.9275 8.82986 12.4597 8.78781 13.4394C8.74224 14.499 8.73242 14.8167 8.73242 17.5001C8.73242 20.1832 8.74224 20.501 8.78781 21.5608C8.82986 22.5405 8.98419 23.0725 9.11385 23.4265C9.26592 23.8631 9.50787 24.2578 9.82259 24.582C10.1282 24.9158 10.5004 25.1726 10.912 25.3337C11.2458 25.4714 11.7476 25.6351 12.6714 25.6797C13.6704 25.7281 13.9697 25.7382 16.4998 25.7382C19.0301 25.7382 19.3297 25.7281 20.3284 25.6797C21.2522 25.6351 21.754 25.4714 22.0878 25.3337C22.9141 24.9956 23.5672 24.3029 23.886 23.4265C24.0156 23.0725 24.17 22.5405 24.2122 21.5608C24.2578 20.501 24.2674 20.1832 24.2674 17.5001C24.2674 14.8167 24.2578 14.499 24.2122 13.4394C24.1702 12.4597 24.0159 11.9275 23.886 11.5734ZM16.5 22.6599C13.8129 22.6599 11.6346 20.3498 11.6346 17.4998C11.6346 14.6498 13.8129 12.3398 16.5 12.3398C19.1869 12.3398 21.3652 14.6498 21.3652 17.4998C21.3652 20.3498 19.1869 22.6599 16.5 22.6599ZM21.5576 13.3417C20.9297 13.3417 20.4206 12.8017 20.4206 12.1358C20.4206 11.4698 20.9297 10.9298 21.5576 10.9298C22.1855 10.9298 22.6946 11.4698 22.6946 12.1358C22.6943 12.8017 22.1855 13.3417 21.5576 13.3417Z" fill="white"/>
<path d="M16.5 0C7.38869 0 0 7.83649 0 17.5C0 27.1635 7.38869 35 16.5 35C25.6113 35 33 27.1635 33 17.5C33 7.83649 25.6113 0 16.5 0ZM25.9175 21.643C25.8716 22.7127 25.7113 23.443 25.4771 24.0823C24.9849 25.4321 23.9788 26.4991 22.7061 27.0212C22.1036 27.2695 21.4148 27.4393 20.4065 27.4882C19.3961 27.5371 19.0733 27.5488 16.5003 27.5488C13.9269 27.5488 13.6044 27.5371 12.5938 27.4882C11.5854 27.4393 10.8966 27.2695 10.2941 27.0212C9.66167 26.7688 9.08915 26.3734 8.61582 25.862C8.13393 25.3603 7.76106 24.7528 7.52314 24.0823C7.28899 23.4433 7.12862 22.7127 7.08279 21.6432C7.03622 20.5714 7.02539 20.229 7.02539 17.5C7.02539 14.771 7.03622 14.4286 7.08254 13.357C7.12836 12.2873 7.28849 11.557 7.52264 10.9177C7.76056 10.2472 8.13368 9.63974 8.61582 9.13799C9.0889 8.62663 9.66167 8.23116 10.2939 7.97882C10.8966 7.73048 11.5852 7.56065 12.5938 7.51179C13.6041 7.46292 13.9269 7.45117 16.5 7.45117C19.0731 7.45117 19.3959 7.46292 20.4062 7.51205C21.4148 7.56065 22.1034 7.73048 22.7061 7.97855C23.3383 8.2309 23.9111 8.62663 24.3844 9.13799C24.8663 9.64001 25.2394 10.2472 25.4771 10.9177C25.7115 11.557 25.8716 12.2873 25.9177 13.357C25.9638 14.4286 25.9746 14.771 25.9746 17.5C25.9746 20.229 25.9638 20.5714 25.9175 21.643Z" fill="white"/>
</svg>
