<svg width="25" height="25" viewBox="0 0 33 36" fill="none" xmlns="http://www.w3.org/2000/svg">
<path d="M16.5 0C7.38869 0 0 8.06039 0 18C0 27.9396 7.38869 36 16.5 36C25.6113 36 33 27.9396 33 18C33 8.06039 25.6113 0 16.5 0ZM24.0337 14.0345C24.041 14.2116 24.0445 14.3896 24.0445 14.5684C24.0445 20.0278 20.2353 26.3232 13.269 26.3235H13.2693H13.269C11.1302 26.3235 9.14001 25.6396 7.46397 24.4677C7.76031 24.5058 8.06193 24.5248 8.36732 24.5248C10.1418 24.5248 11.7748 23.8645 13.0711 22.7563C11.4132 22.7227 10.0154 21.5283 9.53302 19.8866C9.76389 19.935 10.0013 19.9613 10.2448 19.9613C10.5905 19.9613 10.9253 19.9105 11.2435 19.8158C9.51061 19.4373 8.20518 17.7665 8.20518 15.7659C8.20518 15.7473 8.20518 15.7305 8.20569 15.7132C8.71603 16.0227 9.29963 16.209 9.921 16.2298C8.9041 15.4896 8.23565 14.2243 8.23565 12.7908C8.23565 12.0339 8.42322 11.3247 8.7485 10.7141C10.6161 13.2141 13.4073 14.8582 16.5549 15.0309C16.4899 14.7283 16.4564 14.413 16.4564 14.0889C16.4564 11.8081 18.1526 9.95773 20.2441 9.95773C21.3335 9.95773 22.3174 10.4601 23.0085 11.2632C23.8713 11.0775 24.6815 10.7336 25.4134 10.2604C25.1302 11.2247 24.53 12.0339 23.748 12.5456C24.5141 12.4456 25.2442 12.2239 25.9227 11.8949C25.4159 12.7235 24.7732 13.4514 24.0337 14.0345Z" fill="white"/>
</svg>
