<?xml version="1.0" standalone="no"?>
<!DOCTYPE svg PUBLIC "-//W3C//DTD SVG 20010904//EN"
 "http://www.w3.org/TR/2001/REC-SVG-20010904/DTD/svg10.dtd">
<svg version="1.0" xmlns="http://www.w3.org/2000/svg"
 width="134.000000pt" height="134.000000pt" viewBox="0 0 134.000000 134.000000"
 preserveAspectRatio="xMidYMid meet">
<metadata>
Created by potrace 1.14, written by Peter Selinger 2001-2017
</metadata>
<g transform="translate(0.000000,134.000000) scale(0.100000,-0.100000)"
fill="#000000" stroke="none">
<path d="M400 1329 c0 -5 14 -23 32 -39 23 -21 28 -30 17 -33 -8 -3 -34 -10
-59 -17 -25 -7 -58 -22 -74 -33 -19 -14 -42 -20 -63 -18 -18 1 -33 -2 -33 -7
0 -10 52 -62 84 -85 18 -13 18 -14 -5 -36 -13 -13 -41 -32 -62 -43 -22 -10
-37 -22 -34 -25 3 -3 -13 -33 -36 -66 -23 -34 -48 -79 -56 -99 -10 -25 -24
-40 -43 -47 -33 -12 -34 -18 -8 -46 12 -13 23 -42 26 -71 14 -114 118 -248
255 -327 36 -21 71 -48 78 -60 6 -12 28 -33 47 -46 22 -16 33 -30 29 -39 -9
-25 22 -60 93 -105 105 -67 210 -105 213 -77 6 49 -1 78 -26 108 -42 50 -1 54
130 12 33 -11 72 -21 88 -24 65 -11 11 61 -91 121 l-43 26 41 23 c23 13 46 24
50 24 5 0 42 34 84 76 l76 75 47 -7 c27 -3 57 -8 68 -11 11 -2 30 -6 42 -9 72
-15 -12 82 -119 137 l-67 34 44 23 c25 12 45 28 45 34 0 14 -56 65 -94 85
l-30 15 27 14 c28 15 39 42 42 108 2 53 -17 109 -54 154 -31 39 -69 63 -345
225 -107 63 -316 113 -316 76z"/>
</g>
</svg>
